Pontano-Regular.ufo
<glyph name="quotedbl" format="1">
  <advance width="510"/>
  <unicode hex="0022"/>
  <outline>
    <contour>
      <point x="89" y="1000" type="line"/>
      <point x="148" y="1000" type="line"/>
      <point x="197" y="1464" type="line"/>
      <point x="39" y="1464" type="line"/>
    </contour>
    <contour>
      <point x="360" y="1000" type="line"/>
      <point x="419" y="1000" type="line"/>
      <point x="468" y="1464" type="line"/>
      <point x="310" y="1464" type="line"/>
    </contour>
  </outline>
</glyph>
<glyph name="plus" format="1">
  <advance width="860"/>
  <unicode hex="002B"/>
  <outline>
    <contour>
      <point x="366" y="350" type="line"/>
      <point x="488" y="350" type="line"/>
      <point x="488" y="665" type="line"/>
      <point x="778" y="665" type="line"/>
      <point x="778" y="785" type="line"/>
      <point x="488" y="785" type="line"/>
      <point x="488" y="1100" type="line"/>
      <point x="366" y="1100" type="line"/>
      <point x="366" y="785" type="line"/>
      <point x="72" y="785" type="line"/>
      <point x="72" y="665" type="line"/>
      <point x="366" y="665" type="line"/>
    </contour>
  </outline>
</glyph>
<glyph name="M" format="1">
  <advance width="1662"/>
  <unicode hex="004D"/>
  <outline>
    <contour>
      <point x="831" y="1464" type="move" name="top"/>
    </contour>
    <contour>
      <point x="146" y="0" type="line"/>
      <point x="313" y="0" type="line"/>
      <point x="313" y="1246" type="line"/>
      <point x="748" y="250" type="line"/>
      <point x="909" y="250" type="line"/>
      <point x="1355" y="1239" type="line"/>
      <point x="1355" y="0" type="line"/>
      <point x="1516" y="0" type="line"/>
      <point x="1516" y="1464" type="line"/>
      <point x="1286" y="1464" type="line"/>
      <point x="835" y="437" type="line"/>
      <point x="400" y="1464" type="line"/>
      <point x="146" y="1464" type="line"/>
    </contour>
  </outline>
</glyph>
<glyph name="P" format="1">
  <advance width="1269"/>
  <unicode hex="0050"/>
  <outline>
    <contour>
      <point x="634.5" y="1464" type="move" name="top"/>
    </contour>
    <contour>
      <point x="146" y="0" type="line"/>
      <point x="321" y="0" type="line"/>
      <point x="321" y="631" type="line"/>
      <point x="504" y="631" type="line" smooth="yes"/>
      <point x="1016" y="631"/>
      <point x="1210" y="724"/>
      <point x="1210" y="1063" type="curve" smooth="yes"/>
      <point x="1210" y="1360"/>
      <point x="1027" y="1464"/>
      <point x="551" y="1464" type="curve" smooth="yes"/>
      <point x="146" y="1464" type="line"/>
    </contour>
    <contour>
      <point x="321" y="766" type="line"/>
      <point x="321" y="1330" type="line"/>
      <point x="532" y="1330" type="line" smooth="yes"/>
      <point x="881" y="1330"/>
      <point x="1032" y="1297"/>
      <point x="1032" y="1055" type="curve" smooth="yes"/>
      <point x="1032" y="816"/>
      <point x="896" y="767"/>
      <point x="552" y="766" type="curve"/>
    </contour>
  </outline>
</glyph>
<glyph name="T" format="1">
  <advance width="1119"/>
  <unicode hex="0054"/>
  <outline>
    <contour>
      <point x="559.5" y="1464" type="move" name="top"/>
    </contour>
    <contour>
      <point x="481" y="0" type="line"/>
      <point x="656" y="0" type="line"/>
      <point x="656" y="1331" type="line"/>
      <point x="1110" y="1331" type="line"/>
      <point x="1110" y="1464" type="line"/>
      <point x="9" y="1464" type="line"/>
      <point x="9" y="1331" type="line"/>
      <point x="481" y="1331" type="line"/>
    </contour>
  </outline>
</glyph>
<glyph name="U" format="1">
  <advance width="1364"/>
  <unicode hex="0055"/>
  <outline>
    <contour>
      <point x="682" y="1464" type="move" name="top"/>
    </contour>
    <contour>
      <point x="804" y="0" type="move" name="ogonek"/>
    </contour>
    <contour>
      <point x="678" y="-24" type="curve" smooth="yes"/>
      <point x="1058" y="-24"/>
      <point x="1244" y="159"/>
      <point x="1244" y="579" type="curve" smooth="yes"/>
      <point x="1244" y="1464" type="line"/>
      <point x="1069" y="1464" type="line"/>
      <point x="1069" y="584" type="line" smooth="yes"/>
      <point x="1069" y="289"/>
      <point x="996" y="115"/>
      <point x="684" y="115" type="curve" smooth="yes"/>
      <point x="370" y="115"/>
      <point x="296" y="287"/>
      <point x="296" y="584" type="curve" smooth="yes"/>
      <point x="296" y="1464" type="line"/>
      <point x="120" y="1464" type="line"/>
      <point x="120" y="572" type="line" smooth="yes"/>
      <point x="120" y="150"/>
      <point x="312" y="-24"/>
    </contour>
  </outline>
</glyph>
<glyph name="Y" format="1">
  <advance width="1184"/>
  <unicode hex="0059"/>
  <outline>
    <contour>
      <point x="592" y="1464" type="move" name="top"/>
    </contour>
    <contour>
      <point x="506" y="0" type="line"/>
      <point x="680" y="0" type="line"/>
      <point x="680" y="548" type="line"/>
      <point x="1186" y="1464" type="line"/>
      <point x="999" y="1464" type="line"/>
      <point x="595" y="707" type="line"/>
      <point x="186" y="1464" type="line"/>
      <point x="-3" y="1464" type="line"/>
      <point x="506" y="549" type="line"/>
    </contour>
  </outline>
</glyph>
<glyph name="grave" format="1">
  <advance width="496"/>
  <unicode hex="0060"/>
  <outline>
    <contour>
      <point x="348" y="1023" type="move" name="_top"/>
    </contour>
    <contour>
      <point x="356" y="1154" type="line"/>
      <point x="469" y="1155" type="line"/>
      <point x="265" y="1474" type="line"/>
      <point x="32" y="1474" type="line"/>
    </contour>
  </outline>
</glyph>
<glyph name="c" format="1">
  <advance width="999"/>
  <unicode hex="0063"/>
  <outline>
    <contour>
      <point x="499.5" y="1023" type="move" name="top"/>
    </contour>
    <contour>
      <point x="538" y="-24" type="curve" smooth="yes"/>
      <point x="717" y="-24"/>
      <point x="879" y="50"/>
      <point x="934" y="287" type="curve"/>
      <point x="799" y="328" type="line"/>
      <point x="759" y="172"/>
      <point x="674" y="98"/>
      <point x="543" y="98" type="curve" smooth="yes"/>
      <point x="358" y="98"/>
      <point x="269" y="253"/>
      <point x="269" y="513" type="curve" smooth="yes"/>
      <point x="269" y="768"/>
      <point x="355" y="924"/>
      <point x="543" y="924" type="curve" smooth="yes"/>
      <point x="671" y="924"/>
      <point x="754" y="852"/>
      <point x="795" y="695" type="curve"/>
      <point x="935" y="730" type="line"/>
      <point x="879" y="973"/>
      <point x="709" y="1045"/>
      <point x="538" y="1045" type="curve" smooth="yes"/>
      <point x="242" y="1045"/>
      <point x="96" y="818"/>
      <point x="96" y="510" type="curve" smooth="yes"/>
      <point x="96" y="199"/>
      <point x="244" y="-24"/>
    </contour>
  </outline>
</glyph>
<glyph name="f" format="1">
  <advance width="630"/>
  <unicode hex="0066"/>
  <outline>
    <contour>
      <point x="315" y="1344" type="move" name="top"/>
    </contour>
    <contour>
      <point x="212" y="0" type="line"/>
      <point x="382" y="0" type="line"/>
      <point x="382" y="897" type="line"/>
      <point x="589" y="897" type="line"/>
      <point x="589" y="1023" type="line"/>
      <point x="382" y="1023" type="line"/>
      <point x="381.949" y="1159.71" type="line" smooth="yes"/>
      <point x="381.949" y="1299.14"/>
      <point x="396.991" y="1344"/>
      <point x="484" y="1344" type="curve" smooth="yes"/>
      <point x="522" y="1344"/>
      <point x="559" y="1332"/>
      <point x="591" y="1316" type="curve"/>
      <point x="634" y="1426" type="line"/>
      <point x="599" y="1449"/>
      <point x="529" y="1474"/>
      <point x="465" y="1474" type="curve" smooth="yes"/>
      <point x="288" y="1474"/>
      <point x="212" y="1385"/>
      <point x="212" y="1139" type="curve" smooth="yes"/>
      <point x="212" y="1023" type="line"/>
      <point x="38" y="1023" type="line"/>
      <point x="38" y="897" type="line"/>
      <point x="212" y="897" type="line"/>
    </contour>
  </outline>
</glyph>
<glyph name="g" format="1">
  <advance width="1121"/>
  <unicode hex="0067"/>
  <outline>
    <contour>
      <point x="539" y="1023" type="move" name="top"/>
    </contour>
    <contour>
      <point x="543.612" y="-448.009" type="curve" smooth="yes"/>
      <point x="829.02" y="-448.009"/>
      <point x="997" y="-281.538"/>
      <point x="997" y="34" type="curve" smooth="yes"/>
      <point x="997" y="1023" type="line"/>
      <point x="852" y="1023" type="line"/>
      <point x="836" y="860" type="line"/>
      <point x="772" y="974"/>
      <point x="666" y="1045"/>
      <point x="522" y="1045" type="curve" smooth="yes"/>
      <point x="269" y="1045"/>
      <point x="86" y="860"/>
      <point x="86" y="510" type="curve" smooth="yes"/>
      <point x="86" y="186"/>
      <point x="253" y="-24"/>
      <point x="524" y="-24" type="curve" smooth="yes"/>
      <point x="668" y="-24"/>
      <point x="766" y="34"/>
      <point x="828" y="127" type="curve"/>
      <point x="828" y="33" type="line" smooth="yes"/>
      <point x="828" y="-188.01"/>
      <point x="750.082" y="-320.014"/>
      <point x="543.814" y="-320.014" type="curve" smooth="yes"/>
      <point x="395.424" y="-320.014"/>
      <point x="311.378" y="-267.23"/>
      <point x="245" y="-185" type="curve"/>
      <point x="153" y="-279" type="line"/>
      <point x="223.566" y="-367.456"/>
      <point x="360.315" y="-448.009"/>
    </contour>
    <contour>
      <point x="533" y="97" type="curve" smooth="yes"/>
      <point x="359" y="97"/>
      <point x="258" y="240"/>
      <point x="258" y="516" type="curve" smooth="yes"/>
      <point x="258" y="775"/>
      <point x="363" y="925"/>
      <point x="532" y="925" type="curve" smooth="yes"/>
      <point x="699" y="925"/>
      <point x="828" y="828"/>
      <point x="828" y="505" type="curve" smooth="yes"/>
      <point x="828" y="227"/>
      <point x="753" y="97"/>
    </contour>
  </outline>
</glyph>
<glyph name="i" format="1">
  <advance width="429"/>
  <unicode hex="0069"/>
  <outline>
    <component base="dotaccent" xOffset="9"/>
    <component base="dotlessi"/>
    <contour>
      <point x="0" y="0" type="move" name="ogonek"/>
    </contour>
  </outline>
</glyph>
<glyph name="k" format="1">
  <advance width="1029"/>
  <unicode hex="006B"/>
  <outline>
    <contour>
      <point x="639" y="1220" type="move" name="top"/>
    </contour>
    <contour>
      <point x="126" y="0" type="line"/>
      <point x="297" y="0" type="line"/>
      <point x="297" y="352" type="line"/>
      <point x="493" y="539" type="line"/>
      <point x="847" y="0" type="line"/>
      <point x="1039" y="0" type="line"/>
      <point x="603" y="645" type="line"/>
      <point x="999" y="1023" type="line"/>
      <point x="806" y="1023" type="line"/>
      <point x="297" y="533" type="line"/>
      <point x="297" y="1474" type="line"/>
      <point x="126" y="1474" type="line"/>
    </contour>
  </outline>
</glyph>
<glyph name="m" format="1">
  <advance width="1799"/>
  <unicode hex="006D"/>
  <outline>
    <contour>
      <point x="971" y="1023" type="move" name="top"/>
    </contour>
    <contour>
      <point x="126" y="0" type="line"/>
      <point x="296" y="0" type="line"/>
      <point x="296" y="516" type="line"/>
      <point x="300" y="736"/>
      <point x="373" y="925"/>
      <point x="606" y="925" type="curve" smooth="yes"/>
      <point x="772" y="925"/>
      <point x="817" y="808"/>
      <point x="817" y="603" type="curve" smooth="yes"/>
      <point x="817" y="0" type="line"/>
      <point x="987" y="0" type="line"/>
      <point x="987" y="495" type="line" smooth="yes"/>
      <point x="987" y="726"/>
      <point x="1055" y="925"/>
      <point x="1298" y="925" type="curve" smooth="yes"/>
      <point x="1463" y="925"/>
      <point x="1509" y="808"/>
      <point x="1509" y="603" type="curve" smooth="yes"/>
      <point x="1509" y="0" type="line"/>
      <point x="1679" y="0" type="line"/>
      <point x="1679" y="588" type="line" smooth="yes"/>
      <point x="1679" y="794"/>
      <point x="1651" y="1045"/>
      <point x="1328" y="1045" type="curve" smooth="yes"/>
      <point x="1148" y="1045"/>
      <point x="1027" y="968"/>
      <point x="962" y="823" type="curve"/>
      <point x="925" y="947"/>
      <point x="839" y="1045"/>
      <point x="637" y="1045" type="curve" smooth="yes"/>
      <point x="477" y="1045"/>
      <point x="365" y="982"/>
      <point x="296" y="866" type="curve"/>
      <point x="296" y="1023" type="line"/>
      <point x="126" y="1023" type="line"/>
    </contour>
  </outline>
</glyph>
<glyph name="o" format="1">
  <advance width="1090"/>
  <unicode hex="006F"/>
  <outline>
    <contour>
      <point x="546" y="1023" type="move" name="top"/>
    </contour>
    <contour>
      <point x="614" y="0" type="move" name="ogonek"/>
    </contour>
    <contour>
      <point x="545" y="97" type="curve" smooth="yes"/>
      <point x="322" y="97"/>
      <point x="269" y="308"/>
      <point x="269" y="511" type="curve" smooth="yes"/>
      <point x="269" y="713"/>
      <point x="322" y="925"/>
      <point x="545" y="925" type="curve" smooth="yes"/>
      <point x="768" y="925"/>
      <point x="821" y="713"/>
      <point x="821" y="511" type="curve" smooth="yes"/>
      <point x="821" y="308"/>
      <point x="768" y="97"/>
    </contour>
    <contour>
      <point x="545" y="-24" type="curve" smooth="yes"/>
      <point x="818" y="-24"/>
      <point x="994" y="159"/>
      <point x="994" y="511" type="curve" smooth="yes"/>
      <point x="994" y="862"/>
      <point x="818" y="1045"/>
      <point x="545" y="1045" type="curve" smooth="yes"/>
      <point x="271" y="1045"/>
      <point x="95" y="862"/>
      <point x="95" y="511" type="curve" smooth="yes"/>
      <point x="95" y="159"/>
      <point x="271" y="-24"/>
    </contour>
  </outline>
</glyph>
<glyph name="u" format="1">
  <advance width="1109"/>
  <unicode hex="0075"/>
  <outline>
    <contour>
      <point x="557" y="1023" type="move" name="top"/>
    </contour>
    <contour>
      <point x="889" y="0" type="move" name="ogonek"/>
    </contour>
    <contour>
      <point x="477" y="-24" type="curve" smooth="yes"/>
      <point x="637" y="-24"/>
      <point x="745" y="39"/>
      <point x="812" y="154" type="curve"/>
      <point x="812" y="0" type="line"/>
      <point x="982" y="0" type="line"/>
      <point x="982" y="1023" type="line"/>
      <point x="812" y="1023" type="line"/>
      <point x="812" y="523" type="line" smooth="yes"/>
      <point x="812" y="296"/>
      <point x="740" y="97"/>
      <point x="511" y="97" type="curve" smooth="yes"/>
      <point x="336" y="97"/>
      <point x="290" y="210"/>
      <point x="290" y="425" type="curve" smooth="yes"/>
      <point x="290" y="1023" type="line"/>
      <point x="120" y="1023" type="line"/>
      <point x="120" y="448" type="line" smooth="yes"/>
      <point x="120" y="240"/>
      <point x="144" y="-24"/>
    </contour>
  </outline>
</glyph>
<glyph name="guillemotleft" format="1">
  <advance width="946"/>
  <unicode hex="00AB"/>
  <outline>
    <contour>
      <point x="478" y="242" type="line"/>
      <point x="478" y="411" type="line"/>
      <point x="147" y="650" type="line"/>
      <point x="478" y="887" type="line"/>
      <point x="478" y="1057" type="line"/>
      <point x="29" y="768" type="line"/>
      <point x="29" y="531" type="line"/>
    </contour>
    <contour>
      <point x="937" y="242" type="line"/>
      <point x="937" y="411" type="line"/>
      <point x="606" y="650" type="line"/>
      <point x="937" y="887" type="line"/>
      <point x="937" y="1057" type="line"/>
      <point x="488" y="768" type="line"/>
      <point x="488" y="531" type="line"/>
    </contour>
  </outline>
</glyph>
<glyph name="uni00B2" format="1">
  <advance width="1236"/>
  <unicode hex="00B2"/>
  <outline>
    <contour>
      <point x="351" y="666" type="curve"/>
      <point x="883" y="666" type="line"/>
      <point x="883" y="761" type="line"/>
      <point x="505" y="761" type="line"/>
      <point x="611.416" y="934.05"/>
      <point x="882.025" y="994.342"/>
      <point x="882.025" y="1237.97" type="curve" smooth="yes"/>
      <point x="882.025" y="1407.78"/>
      <point x="756.292" y="1490"/>
      <point x="615" y="1490" type="curve" smooth="yes"/>
      <point x="491" y="1490"/>
      <point x="384" y="1433"/>
      <point x="327" y="1292" type="curve"/>
      <point x="336" y="1289"/>
      <point x="432" y="1245"/>
      <point x="432" y="1245" type="curve"/>
      <point x="466" y="1339"/>
      <point x="535" y="1386"/>
      <point x="618" y="1386" type="curve" smooth="yes"/>
      <point x="697" y="1386"/>
      <point x="758" y="1332"/>
      <point x="758" y="1238" type="curve" smooth="yes"/>
      <point x="758" y="1025"/>
      <point x="357" y="948"/>
    </contour>
  </outline>
</glyph>
<glyph name="uni00B3" format="1">
  <advance width="962"/>
  <unicode hex="00B3"/>
  <outline>
    <contour>
      <point x="469.152" y="738.989" type="curve" smooth="yes"/>
      <point x="382.791" y="738.989"/>
      <point x="326.88" y="783.355"/>
      <point x="298" y="869" type="curve"/>
      <point x="202" y="829" type="line"/>
      <point x="235" y="691"/>
      <point x="351" y="640"/>
      <point x="467" y="639" type="curve" smooth="yes"/>
      <point x="646" y="639"/>
      <point x="741" y="757"/>
      <point x="741" y="881" type="curve" smooth="yes"/>
      <point x="738" y="978"/>
      <point x="698" y="1066"/>
      <point x="572" y="1104" type="curve"/>
      <point x="665" y="1137"/>
      <point x="702" y="1214"/>
      <point x="702" y="1292" type="curve" smooth="yes"/>
      <point x="702" y="1397"/>
      <point x="613" y="1484"/>
      <point x="461" y="1484" type="curve" smooth="yes"/>
      <point x="366" y="1484"/>
      <point x="268" y="1439"/>
      <point x="223" y="1348" type="curve"/>
      <point x="309" y="1292" type="line"/>
      <point x="347" y="1361"/>
      <point x="404" y="1387"/>
      <point x="463" y="1387" type="curve" smooth="yes"/>
      <point x="540" y="1387"/>
      <point x="579" y="1343"/>
      <point x="579" y="1281" type="curve" smooth="yes"/>
      <point x="579" y="1207"/>
      <point x="552" y="1147"/>
      <point x="405" y="1146" type="curve"/>
      <point x="405" y="1049" type="line"/>
      <point x="545.101" y="1049"/>
      <point x="616.091" y="1000.05"/>
      <point x="616.091" y="883.334" type="curve" smooth="yes"/>
      <point x="616.091" y="808.498"/>
      <point x="571.072" y="738.989"/>
    </contour>
  </outline>
</glyph>
<glyph name="acute" format="1">
  <advance width="496"/>
  <unicode hex="00B4"/>
  <outline>
    <contour>
      <point x="148" y="1023" type="move" name="_top"/>
    </contour>
    <contour>
      <point x="47" y="1151" type="line"/>
      <point x="160" y="1150" type="line"/>
      <point x="484" y="1470" type="line"/>
      <point x="251" y="1470" type="line"/>
    </contour>
  </outline>
</glyph>
<glyph name="mu" format="1">
  <advance width="1109"/>
  <unicode hex="00B5"/>
  <outline>
    <component base="u"/>
    <contour>
      <point x="120" y="-272" type="line"/>
      <point x="290" y="-272" type="line"/>
      <point x="290" y="497" type="line"/>
      <point x="120" y="497" type="line"/>
    </contour>
  </outline>
</glyph>
<glyph name="cedilla" format="1">
  <advance width="435"/>
  <unicode hex="00B8"/>
  <outline>
    <contour>
      <point x="325" y="-78" type="curve" smooth="yes"/>
      <point x="275" y="0" type="line"/>
      <point x="175" y="0" type="line"/>
      <point x="205" y="-63" type="line" smooth="yes"/>
      <point x="233.156" y="-122.128"/>
      <point x="245.399" y="-169.939"/>
      <point x="245.399" y="-207.45" type="curve" smooth="yes"/>
      <point x="245.399" y="-283.368"/>
      <point x="195.254" y="-317.103"/>
      <point x="125.387" y="-317.103" type="curve" smooth="yes"/>
      <point x="92.8452" y="-317.103"/>
      <point x="56.0247" y="-309.784"/>
      <point x="18" y="-296" type="curve"/>
      <point x="18" y="-373" type="line"/>
      <point x="67.0396" y="-396.764"/>
      <point x="116.346" y="-407.611"/>
      <point x="161.975" y="-407.611" type="curve" smooth="yes"/>
      <point x="280.366" y="-407.611"/>
      <point x="374.003" y="-334.589"/>
      <point x="374.003" y="-224.701" type="curve" smooth="yes"/>
      <point x="374.003" y="-180.895"/>
      <point x="359.123" y="-131.232"/>
    </contour>
  </outline>
</glyph>
<glyph name="eth" format="1">
  <advance width="1053"/>
  <unicode hex="00F0"/>
  <outline>
    <contour>
      <point x="82" y="454" type="curve" smooth="yes"/>
      <point x="82" y="207.441"/>
      <point x="226.573" y="-24.0031"/>
      <point x="520.02" y="-24.0031" type="curve" smooth="yes"/>
      <point x="840.552" y="-24.0031"/>
      <point x="972" y="213.662"/>
      <point x="972" y="529" type="curve" smooth="yes"/>
      <point x="972" y="775"/>
      <point x="914" y="1038"/>
      <point x="745" y="1216" type="curve"/>
      <point x="927" y="1335" type="line"/>
      <point x="864" y="1424" type="line"/>
      <point x="660" y="1291" type="line"/>
      <point x="541" y="1378"/>
      <point x="380" y="1432"/>
      <point x="169" y="1432" type="curve"/>
      <point x="169" y="1320" type="line"/>
      <point x="327" y="1320"/>
      <point x="448" y="1278"/>
      <point x="541" y="1213" type="curve"/>
      <point x="378" y="1107" type="line"/>
      <point x="441" y="1018" type="line"/>
      <point x="627" y="1140" type="line"/>
      <point x="731" y="1032"/>
      <point x="781" y="891"/>
      <point x="796" y="773" type="curve"/>
      <point x="722.84" y="864.944"/>
      <point x="617.426" y="908.017"/>
      <point x="506.813" y="908.017" type="curve" smooth="yes"/>
      <point x="289.982" y="908.017"/>
      <point x="82" y="747.569"/>
    </contour>
    <contour>
      <point x="528.708" y="105.934" type="curve" smooth="yes"/>
      <point x="371.313" y="105.934"/>
      <point x="252" y="228.91"/>
      <point x="252" y="442" type="curve" smooth="yes"/>
      <point x="252" y="652"/>
      <point x="372" y="776"/>
      <point x="523" y="776" type="curve" smooth="yes"/>
      <point x="625" y="776"/>
      <point x="710" y="728"/>
      <point x="802" y="628" type="curve"/>
      <point x="808" y="602"/>
      <point x="809" y="535"/>
      <point x="809" y="511" type="curve" smooth="yes"/>
      <point x="809" y="282.548"/>
      <point x="727.821" y="105.934"/>
    </contour>
  </outline>
</glyph>
<glyph name="breve" format="1">
  <advance width="805"/>
  <unicode hex="02D8"/>
  <outline>
    <contour>
      <point x="402.5" y="1023" type="move" name="_top"/>
    </contour>
    <contour>
      <point x="400" y="1225" type="curve" smooth="yes"/>
      <point x="543" y="1225"/>
      <point x="673" y="1300"/>
      <point x="677" y="1488" type="curve"/>
      <point x="539" y="1488" type="line"/>
      <point x="539" y="1397"/>
      <point x="498" y="1349"/>
      <point x="400" y="1349" type="curve" smooth="yes"/>
      <point x="303" y="1349"/>
      <point x="262" y="1397"/>
      <point x="262" y="1488" type="curve"/>
      <point x="123" y="1488" type="line"/>
      <point x="127" y="1300"/>
      <point x="257" y="1225"/>
    </contour>
  </outline>
</glyph>
<glyph name="tilde" format="1">
  <advance width="798"/>
  <unicode hex="02DC"/>
  <outline>
    <contour>
      <point x="399" y="1023" type="move" name="_top"/>
    </contour>
    <contour>
      <point x="567" y="1197" type="curve" smooth="yes"/>
      <point x="630" y="1197"/>
      <point x="677" y="1244"/>
      <point x="677" y="1368" type="curve" smooth="yes"/>
      <point x="677" y="1381"/>
      <point x="677" y="1395"/>
      <point x="676" y="1410" type="curve"/>
      <point x="565" y="1410" type="line"/>
      <point x="565" y="1353"/>
      <point x="558" y="1322"/>
      <point x="529" y="1322" type="curve" smooth="yes"/>
      <point x="472" y="1322"/>
      <point x="326" y="1411"/>
      <point x="229" y="1411" type="curve" smooth="yes"/>
      <point x="176" y="1411"/>
      <point x="110" y="1375"/>
      <point x="110" y="1251" type="curve" smooth="yes"/>
      <point x="110" y="1235"/>
      <point x="111" y="1218"/>
      <point x="114" y="1199" type="curve"/>
      <point x="223" y="1199" type="line"/>
      <point x="223" y="1259"/>
      <point x="240" y="1284"/>
      <point x="264" y="1284" type="curve"/>
      <point x="344" y="1278"/>
      <point x="465" y="1197"/>
    </contour>
  </outline>
</glyph>
<glyph name="Sigma" format="1">
  <advance width="1224"/>
  <unicode hex="03A3"/>
  <outline>
    <contour>
      <point x="1125" y="0" type="line"/>
      <point x="1125" y="141" type="line"/>
      <point x="279" y="141" type="line"/>
      <point x="787" y="680" type="line"/>
      <point x="787" y="779" type="line"/>
      <point x="310" y="1326" type="line"/>
      <point x="1125" y="1326" type="line"/>
      <point x="1125" y="1464" type="line"/>
      <point x="102" y="1464" type="line"/>
      <point x="102" y="1327" type="line"/>
      <point x="613" y="722" type="line"/>
      <point x="102" y="160" type="line"/>
      <point x="102" y="0" type="line"/>
    </contour>
  </outline>
</glyph>
<glyph name="Euro" format="1">
  <advance width="1275"/>
  <unicode hex="20AC"/>
  <outline>
    <component base="C"/>
    <contour>
      <point x="-47" y="542" type="line"/>
      <point x="687" y="542" type="line"/>
      <point x="687" y="657" type="line"/>
      <point x="-47" y="657" type="line"/>
    </contour>
    <contour>
      <point x="-47" y="791" type="line"/>
      <point x="687" y="791" type="line"/>
      <point x="687" y="906" type="line"/>
      <point x="-47" y="906" type="line"/>
    </contour>
  </outline>
</glyph>
<glyph name="radical" format="1">
  <advance width="1293"/>
  <unicode hex="221A"/>
  <outline>
    <contour>
      <point x="480" y="0" type="line"/>
      <point x="614" y="0" type="line"/>
      <point x="1202" y="1464" type="line"/>
      <point x="1032" y="1464" type="line"/>
      <point x="536" y="176" type="line"/>
      <point x="281" y="583" type="line"/>
      <point x="109" y="583" type="line"/>
    </contour>
  </outline>
</glyph>
<glyph name="greaterequal" format="1">
  <advance width="1051"/>
  <unicode hex="2265"/>
  <outline>
    <contour>
      <point x="51" y="241" type="line"/>
      <point x="1000" y="538" type="line"/>
      <point x="1000" y="691" type="line"/>
      <point x="51" y="995" type="line"/>
      <point x="51" y="829" type="line"/>
      <point x="808" y="623" type="line"/>
      <point x="51" y="415" type="line"/>
    </contour>
    <contour>
      <point x="54" y="0" type="line"/>
      <point x="1014" y="0" type="line"/>
      <point x="1014" y="121" type="line"/>
      <point x="54" y="121" type="line"/>
    </contour>
  </outline>
</glyph>
